<svg width="104" height="64" viewBox="0 0 104 64" fill="none" xmlns="http://www.w3.org/2000/svg">
<path d="M97.2205 46.6967C98.1627 48.1234 98.8681 49.3698 99.3415 50.4404C99.8125 51.5088 100.049 52.5501 100.049 53.5621C100.049 54.6891 99.6367 55.6673 98.8118 56.4945C97.9869 57.3217 96.8689 57.7364 95.4557 57.7364C94.1281 57.7364 93.0463 57.4321 92.2123 56.8213C91.3761 56.2127 90.6706 55.4013 90.0914 54.3893C89.5121 53.3773 88.9982 52.4577 88.5497 51.6305L77.2756 33.0019L69.4703 41.0394V51.4908C69.4703 53.6072 69.0195 55.1759 68.1202 56.1992C67.2209 57.2225 66.0646 57.7341 64.6514 57.7341C63.8377 57.7341 63.0556 57.5042 62.3073 57.0444C61.5568 56.5846 60.9798 55.9625 60.5718 55.1827C60.272 54.5381 60.0895 53.792 60.0264 52.94C59.961 52.0903 59.9294 50.8597 59.9294 49.2481V11.6483C59.9294 9.57917 60.3509 8.02622 61.1984 6.99167C62.0436 5.95712 63.1954 5.43872 64.6514 5.43872C66.1074 5.43872 67.2479 5.95036 68.136 6.97364C69.024 7.99692 69.468 9.55437 69.468 11.6483V29.3798L88.1936 8.40713C89.0929 7.39512 89.8592 6.64682 90.4903 6.16448C91.1214 5.68214 91.9621 5.44098 93.0125 5.44098C94.3828 5.44098 95.4918 5.87147 96.337 6.73472C97.1822 7.59797 97.6059 8.6483 97.6059 9.89021C97.6059 11.3846 96.8892 12.8699 95.4534 14.3394L83.8593 26.1364" fill="#EA1C1C"/>
<path d="M51.4413 0C49.255 0 47.4834 1.30277 47.4834 2.90981V61.0902C47.4834 62.6972 49.255 64 51.4413 64C53.6276 64 55.3992 62.6972 55.3992 61.0902V2.90981C55.3992 1.30277 53.6276 0 51.4413 0Z" fill="#F2F2F2"/>
<path d="M35.6141 5.81738C33.4278 5.81738 31.6562 7.12015 31.6562 8.72719V55.2706C31.6562 56.8776 33.4278 58.1804 35.6141 58.1804C37.8004 58.1804 39.572 56.8776 39.572 55.2706V8.72719C39.572 7.12015 37.8004 5.81738 35.6141 5.81738Z" fill="#F2F2F2"/>
<path d="M19.7848 11.6348C17.5985 11.6348 15.8269 12.9375 15.8269 14.5446V49.4533C15.8269 51.0603 17.5985 52.3631 19.7848 52.3631C21.9711 52.3631 23.7427 51.0603 23.7427 49.4533V14.5446C23.7427 12.9375 21.9711 11.6348 19.7848 11.6348Z" fill="#F2F2F2"/>
<path d="M3.95788 23.2717C1.77158 23.2717 0 24.5745 0 26.1815V37.8185C0 39.4256 1.77158 40.7283 3.95788 40.7283C6.14418 40.7283 7.91576 39.4256 7.91576 37.8185V26.1815C7.91576 24.5745 6.14418 23.2717 3.95788 23.2717Z" fill="#F2F2F2"/>
<path d="M91.6894 30.9824L96.9816 41.1453C97.6555 42.3602 98.1942 43.2009 98.5931 43.6652C98.9921 44.1295 99.5691 44.3661 100.322 44.3797C101.194 44.3932 101.904 44.0844 102.447 43.4578C102.991 42.829 103.272 41.9635 103.288 40.8613C103.295 40.4714 103.198 40.0589 103.002 39.6216C102.806 39.1866 102.479 38.5488 102.026 37.7103L95.8704 26.4159L99.1972 23.0801C100.894 21.4077 101.751 20.0644 101.767 19.0456C101.78 18.2139 101.535 17.5197 101.03 16.9585C100.525 16.3995 99.8891 16.1133 99.1228 16.102C98.4759 16.093 97.9237 16.2711 97.4662 16.6362C97.0086 17.0036 96.3437 17.6888 95.4692 18.694L89.3025 25.7646" fill="#F2F2F2"/>
<path d="M92.8502 29.4564C93.2852 29.4564 93.2852 28.7803 92.8502 28.7803C92.4152 28.7803 92.4152 29.4564 92.8502 29.4564Z" fill="#F2F2F2"/>
</svg>
